<mxfile host="Electron" modified="2020-08-04T05:57:47.528Z" agent="5.0 (Windows NT 10.0; Win64; x64) AppleWebKit/537.36 (KHTML, like Gecko) draw.io/13.5.7 Chrome/83.0.4103.122 Electron/9.1.2 Safari/537.36" etag="m2Mb_e-hSd8sdHE8fDDm" compressed="false" version="13.5.7" type="device">
  <diagram id="JkeCzRaAXA9yDT0niHJ5" name="Page-1">
    <mxGraphModel dx="1038" dy="607" grid="1" gridSize="10" guides="1" tooltips="1" connect="1" arrows="1" fold="1" page="1" pageScale="1" pageWidth="850" pageHeight="1400" background="#FFFFFF" math="0" shadow="0">
      <root>
        <mxCell id="0" />
        <mxCell id="1" parent="0" />
        <mxCell id="k7aemHpgfqK2G6UQP_n8-1" value="&lt;span&gt;Uploads&lt;/span&gt;" style="outlineConnect=0;fontColor=#232F3E;gradientColor=none;fillColor=#277116;strokeColor=none;dashed=0;verticalLabelPosition=bottom;verticalAlign=top;align=center;html=1;fontSize=12;fontStyle=0;pointerEvents=1;shape=mxgraph.aws4.bucket;" parent="1" vertex="1">
          <mxGeometry x="40" y="80" width="78" height="78" as="geometry" />
        </mxCell>
        <mxCell id="JZLs2FqF0W2ko9GQ3f_p-4" style="edgeStyle=orthogonalEdgeStyle;rounded=0;orthogonalLoop=1;jettySize=auto;html=1;startArrow=none;startFill=0;" parent="1" source="k7aemHpgfqK2G6UQP_n8-3" target="k7aemHpgfqK2G6UQP_n8-5" edge="1">
          <mxGeometry relative="1" as="geometry">
            <Array as="points">
              <mxPoint x="630" y="439" />
              <mxPoint x="630" y="439" />
            </Array>
          </mxGeometry>
        </mxCell>
        <mxCell id="tSfun1f35xkHQWBB_WDs-2" style="edgeStyle=orthogonalEdgeStyle;rounded=0;orthogonalLoop=1;jettySize=auto;html=1;" parent="1" source="k7aemHpgfqK2G6UQP_n8-3" target="k7aemHpgfqK2G6UQP_n8-1" edge="1">
          <mxGeometry relative="1" as="geometry">
            <Array as="points">
              <mxPoint x="810" y="439" />
              <mxPoint x="810" y="40" />
              <mxPoint x="79" y="40" />
            </Array>
          </mxGeometry>
        </mxCell>
        <mxCell id="k7aemHpgfqK2G6UQP_n8-3" value="&lt;span&gt;ProcessUpload&lt;/span&gt;" style="outlineConnect=0;fontColor=#232F3E;gradientColor=none;fillColor=#D05C17;strokeColor=none;dashed=0;verticalLabelPosition=bottom;verticalAlign=top;align=center;html=1;fontSize=12;fontStyle=0;aspect=fixed;pointerEvents=1;shape=mxgraph.aws4.lambda_function;" parent="1" vertex="1">
          <mxGeometry x="680" y="400" width="78" height="78" as="geometry" />
        </mxCell>
        <mxCell id="k7aemHpgfqK2G6UQP_n8-5" value="DataStore" style="outlineConnect=0;fontColor=#232F3E;gradientColor=none;fillColor=#3334B9;strokeColor=none;dashed=0;verticalLabelPosition=bottom;verticalAlign=top;align=center;html=1;fontSize=12;fontStyle=0;aspect=fixed;pointerEvents=1;shape=mxgraph.aws4.table;" parent="1" vertex="1">
          <mxGeometry x="520" y="400" width="78" height="78" as="geometry" />
        </mxCell>
        <mxCell id="JZLs2FqF0W2ko9GQ3f_p-9" style="edgeStyle=orthogonalEdgeStyle;rounded=0;orthogonalLoop=1;jettySize=auto;html=1;startArrow=none;startFill=0;" parent="1" source="k7aemHpgfqK2G6UQP_n8-6" target="k7aemHpgfqK2G6UQP_n8-15" edge="1">
          <mxGeometry relative="1" as="geometry" />
        </mxCell>
        <mxCell id="k7aemHpgfqK2G6UQP_n8-6" value="&lt;span&gt;GET /Entities&lt;/span&gt;" style="outlineConnect=0;fontColor=#232F3E;gradientColor=none;fillColor=#5A30B5;strokeColor=none;dashed=0;verticalLabelPosition=bottom;verticalAlign=top;align=center;html=1;fontSize=12;fontStyle=0;aspect=fixed;pointerEvents=1;shape=mxgraph.aws4.endpoint;" parent="1" vertex="1">
          <mxGeometry x="200" y="400" width="78" height="78" as="geometry" />
        </mxCell>
        <mxCell id="k7aemHpgfqK2G6UQP_n8-7" value="" style="edgeStyle=orthogonalEdgeStyle;html=1;endArrow=block;elbow=vertical;startArrow=none;endFill=1;strokeColor=#545B64;rounded=0;" parent="1" source="k7aemHpgfqK2G6UQP_n8-1" target="k7aemHpgfqK2G6UQP_n8-37" edge="1">
          <mxGeometry width="100" relative="1" as="geometry">
            <mxPoint x="507" y="254" as="sourcePoint" />
            <mxPoint x="607" y="254" as="targetPoint" />
          </mxGeometry>
        </mxCell>
        <mxCell id="JZLs2FqF0W2ko9GQ3f_p-10" style="edgeStyle=orthogonalEdgeStyle;rounded=0;orthogonalLoop=1;jettySize=auto;html=1;startArrow=none;startFill=0;" parent="1" source="k7aemHpgfqK2G6UQP_n8-13" target="k7aemHpgfqK2G6UQP_n8-19" edge="1">
          <mxGeometry relative="1" as="geometry" />
        </mxCell>
        <mxCell id="k7aemHpgfqK2G6UQP_n8-13" value="&lt;span&gt;GET /Entity/{id}&lt;/span&gt;" style="outlineConnect=0;fontColor=#232F3E;gradientColor=none;fillColor=#5A30B5;strokeColor=none;dashed=0;verticalLabelPosition=bottom;verticalAlign=top;align=center;html=1;fontSize=12;fontStyle=0;aspect=fixed;pointerEvents=1;shape=mxgraph.aws4.endpoint;" parent="1" vertex="1">
          <mxGeometry x="200" y="520" width="78" height="78" as="geometry" />
        </mxCell>
        <mxCell id="JZLs2FqF0W2ko9GQ3f_p-12" style="edgeStyle=orthogonalEdgeStyle;rounded=0;orthogonalLoop=1;jettySize=auto;html=1;startArrow=none;startFill=0;" parent="1" source="k7aemHpgfqK2G6UQP_n8-15" target="k7aemHpgfqK2G6UQP_n8-5" edge="1">
          <mxGeometry relative="1" as="geometry" />
        </mxCell>
        <mxCell id="k7aemHpgfqK2G6UQP_n8-15" value="ListRecords" style="outlineConnect=0;fontColor=#232F3E;gradientColor=none;fillColor=#D05C17;strokeColor=none;dashed=0;verticalLabelPosition=bottom;verticalAlign=top;align=center;html=1;fontSize=12;fontStyle=0;aspect=fixed;pointerEvents=1;shape=mxgraph.aws4.lambda_function;" parent="1" vertex="1">
          <mxGeometry x="360" y="400" width="78" height="78" as="geometry" />
        </mxCell>
        <mxCell id="JZLs2FqF0W2ko9GQ3f_p-11" style="edgeStyle=orthogonalEdgeStyle;rounded=0;orthogonalLoop=1;jettySize=auto;html=1;startArrow=none;startFill=0;" parent="1" source="k7aemHpgfqK2G6UQP_n8-19" target="k7aemHpgfqK2G6UQP_n8-5" edge="1">
          <mxGeometry relative="1" as="geometry" />
        </mxCell>
        <mxCell id="k7aemHpgfqK2G6UQP_n8-19" value="GetRecord" style="outlineConnect=0;fontColor=#232F3E;gradientColor=none;fillColor=#D05C17;strokeColor=none;dashed=0;verticalLabelPosition=bottom;verticalAlign=top;align=center;html=1;fontSize=12;fontStyle=0;aspect=fixed;pointerEvents=1;shape=mxgraph.aws4.lambda_function;" parent="1" vertex="1">
          <mxGeometry x="360" y="520" width="78" height="78" as="geometry" />
        </mxCell>
        <mxCell id="JZLs2FqF0W2ko9GQ3f_p-1" style="edgeStyle=orthogonalEdgeStyle;rounded=0;orthogonalLoop=1;jettySize=auto;html=1;startArrow=none;startFill=0;" parent="1" source="k7aemHpgfqK2G6UQP_n8-28" target="k7aemHpgfqK2G6UQP_n8-1" edge="1">
          <mxGeometry relative="1" as="geometry" />
        </mxCell>
        <mxCell id="JZLs2FqF0W2ko9GQ3f_p-5" style="edgeStyle=orthogonalEdgeStyle;rounded=0;orthogonalLoop=1;jettySize=auto;html=1;startArrow=none;startFill=0;" parent="1" source="k7aemHpgfqK2G6UQP_n8-28" target="k7aemHpgfqK2G6UQP_n8-33" edge="1">
          <mxGeometry relative="1" as="geometry" />
        </mxCell>
        <mxCell id="JZLs2FqF0W2ko9GQ3f_p-7" style="edgeStyle=orthogonalEdgeStyle;rounded=0;orthogonalLoop=1;jettySize=auto;html=1;startArrow=none;startFill=0;" parent="1" source="k7aemHpgfqK2G6UQP_n8-28" target="k7aemHpgfqK2G6UQP_n8-6" edge="1">
          <mxGeometry relative="1" as="geometry">
            <Array as="points">
              <mxPoint x="79" y="439" />
            </Array>
          </mxGeometry>
        </mxCell>
        <mxCell id="JZLs2FqF0W2ko9GQ3f_p-8" style="edgeStyle=orthogonalEdgeStyle;rounded=0;orthogonalLoop=1;jettySize=auto;html=1;startArrow=none;startFill=0;" parent="1" source="k7aemHpgfqK2G6UQP_n8-28" target="k7aemHpgfqK2G6UQP_n8-13" edge="1">
          <mxGeometry relative="1" as="geometry">
            <Array as="points">
              <mxPoint x="79" y="559" />
            </Array>
          </mxGeometry>
        </mxCell>
        <mxCell id="JZLs2FqF0W2ko9GQ3f_p-19" style="edgeStyle=orthogonalEdgeStyle;rounded=0;orthogonalLoop=1;jettySize=auto;html=1;startArrow=none;startFill=0;" parent="1" source="k7aemHpgfqK2G6UQP_n8-28" target="JZLs2FqF0W2ko9GQ3f_p-16" edge="1">
          <mxGeometry relative="1" as="geometry">
            <Array as="points">
              <mxPoint x="79" y="679" />
            </Array>
          </mxGeometry>
        </mxCell>
        <mxCell id="JZLs2FqF0W2ko9GQ3f_p-24" style="edgeStyle=orthogonalEdgeStyle;rounded=0;orthogonalLoop=1;jettySize=auto;html=1;startArrow=none;startFill=0;" parent="1" source="k7aemHpgfqK2G6UQP_n8-28" target="JZLs2FqF0W2ko9GQ3f_p-22" edge="1">
          <mxGeometry relative="1" as="geometry">
            <Array as="points">
              <mxPoint x="80" y="799" />
            </Array>
          </mxGeometry>
        </mxCell>
        <mxCell id="k7aemHpgfqK2G6UQP_n8-28" value="" style="outlineConnect=0;fontColor=#232F3E;gradientColor=none;fillColor=#232F3E;strokeColor=none;dashed=0;verticalLabelPosition=bottom;verticalAlign=top;align=center;html=1;fontSize=12;fontStyle=0;pointerEvents=1;shape=mxgraph.aws4.client;" parent="1" vertex="1">
          <mxGeometry x="40" y="280" width="78" height="78" as="geometry" />
        </mxCell>
        <mxCell id="tSfun1f35xkHQWBB_WDs-1" style="edgeStyle=orthogonalEdgeStyle;rounded=0;orthogonalLoop=1;jettySize=auto;html=1;" parent="1" source="k7aemHpgfqK2G6UQP_n8-31" target="k7aemHpgfqK2G6UQP_n8-1" edge="1">
          <mxGeometry relative="1" as="geometry">
            <Array as="points">
              <mxPoint x="399" y="260" />
              <mxPoint x="160" y="260" />
              <mxPoint x="160" y="140" />
            </Array>
          </mxGeometry>
        </mxCell>
        <mxCell id="k7aemHpgfqK2G6UQP_n8-31" value="&lt;span style=&quot;text-align: left&quot;&gt;GetPresignedUploadUrl&lt;/span&gt;" style="outlineConnect=0;fontColor=#232F3E;gradientColor=none;fillColor=#D05C17;strokeColor=none;dashed=0;verticalLabelPosition=bottom;verticalAlign=top;align=center;html=1;fontSize=12;fontStyle=0;aspect=fixed;pointerEvents=1;shape=mxgraph.aws4.lambda_function;" parent="1" vertex="1">
          <mxGeometry x="360" y="280" width="78" height="78" as="geometry" />
        </mxCell>
        <mxCell id="JZLs2FqF0W2ko9GQ3f_p-6" style="edgeStyle=orthogonalEdgeStyle;rounded=0;orthogonalLoop=1;jettySize=auto;html=1;startArrow=none;startFill=0;" parent="1" source="k7aemHpgfqK2G6UQP_n8-33" target="k7aemHpgfqK2G6UQP_n8-31" edge="1">
          <mxGeometry relative="1" as="geometry" />
        </mxCell>
        <mxCell id="k7aemHpgfqK2G6UQP_n8-33" value="GET /UploadUrl" style="outlineConnect=0;fontColor=#232F3E;gradientColor=none;fillColor=#5A30B5;strokeColor=none;dashed=0;verticalLabelPosition=bottom;verticalAlign=top;align=center;html=1;fontSize=12;fontStyle=0;aspect=fixed;pointerEvents=1;shape=mxgraph.aws4.endpoint;" parent="1" vertex="1">
          <mxGeometry x="200" y="280" width="78" height="78" as="geometry" />
        </mxCell>
        <mxCell id="JZLs2FqF0W2ko9GQ3f_p-2" style="edgeStyle=orthogonalEdgeStyle;rounded=0;orthogonalLoop=1;jettySize=auto;html=1;startArrow=none;startFill=0;" parent="1" source="k7aemHpgfqK2G6UQP_n8-37" target="k7aemHpgfqK2G6UQP_n8-39" edge="1">
          <mxGeometry relative="1" as="geometry" />
        </mxCell>
        <mxCell id="k7aemHpgfqK2G6UQP_n8-37" value="&lt;span&gt;CaptureUpload&lt;/span&gt;" style="outlineConnect=0;fontColor=#232F3E;gradientColor=none;fillColor=#D05C17;strokeColor=none;dashed=0;verticalLabelPosition=bottom;verticalAlign=top;align=center;html=1;fontSize=12;fontStyle=0;aspect=fixed;pointerEvents=1;shape=mxgraph.aws4.lambda_function;" parent="1" vertex="1">
          <mxGeometry x="200" y="80" width="78" height="78" as="geometry" />
        </mxCell>
        <mxCell id="k7aemHpgfqK2G6UQP_n8-38" style="edgeStyle=orthogonalEdgeStyle;rounded=0;orthogonalLoop=1;jettySize=auto;html=1;startArrow=none;startFill=0;" parent="1" source="k7aemHpgfqK2G6UQP_n8-42" target="k7aemHpgfqK2G6UQP_n8-47" edge="1">
          <mxGeometry relative="1" as="geometry" />
        </mxCell>
        <mxCell id="JZLs2FqF0W2ko9GQ3f_p-3" style="edgeStyle=orthogonalEdgeStyle;rounded=0;orthogonalLoop=1;jettySize=auto;html=1;startArrow=none;startFill=0;" parent="1" source="k7aemHpgfqK2G6UQP_n8-39" target="k7aemHpgfqK2G6UQP_n8-42" edge="1">
          <mxGeometry relative="1" as="geometry" />
        </mxCell>
        <mxCell id="k7aemHpgfqK2G6UQP_n8-39" value="&lt;span&gt;CapturedEvents&lt;/span&gt;" style="outlineConnect=0;fontColor=#232F3E;gradientColor=none;fillColor=#3334B9;strokeColor=none;dashed=0;verticalLabelPosition=bottom;verticalAlign=top;align=center;html=1;fontSize=12;fontStyle=0;aspect=fixed;pointerEvents=1;shape=mxgraph.aws4.table;" parent="1" vertex="1">
          <mxGeometry x="360" y="80" width="78" height="78" as="geometry" />
        </mxCell>
        <mxCell id="k7aemHpgfqK2G6UQP_n8-45" style="edgeStyle=orthogonalEdgeStyle;rounded=0;orthogonalLoop=1;jettySize=auto;html=1;startArrow=none;startFill=0;" parent="1" source="JZLs2FqF0W2ko9GQ3f_p-13" target="k7aemHpgfqK2G6UQP_n8-3" edge="1">
          <mxGeometry relative="1" as="geometry">
            <Array as="points" />
          </mxGeometry>
        </mxCell>
        <mxCell id="k7aemHpgfqK2G6UQP_n8-47" value="&lt;span&gt;EventsTopic&lt;/span&gt;" style="outlineConnect=0;fontColor=#232F3E;gradientColor=none;fillColor=#BC1356;strokeColor=none;dashed=0;verticalLabelPosition=bottom;verticalAlign=top;align=center;html=1;fontSize=12;fontStyle=0;pointerEvents=1;shape=mxgraph.aws4.topic;" parent="1" vertex="1">
          <mxGeometry x="680" y="80" width="78" height="78" as="geometry" />
        </mxCell>
        <mxCell id="k7aemHpgfqK2G6UQP_n8-50" value="&lt;span style=&quot;font-family: &amp;#34;helvetica&amp;#34; ; font-size: 12px ; font-style: normal ; font-weight: 400 ; letter-spacing: normal ; text-align: center ; text-indent: 0px ; text-transform: none ; word-spacing: 0px ; background-color: rgb(248 , 249 , 250) ; float: none ; display: inline&quot;&gt;CaptureStateChanges&lt;/span&gt;&lt;br&gt;" style="outlineConnect=0;fontColor=#232F3E;gradientColor=none;fillColor=#D05C17;strokeColor=none;dashed=0;verticalLabelPosition=bottom;verticalAlign=top;align=center;html=1;fontSize=12;fontStyle=0;aspect=fixed;pointerEvents=1;shape=mxgraph.aws4.lambda_function;" parent="1" vertex="1">
          <mxGeometry x="520" y="200" width="78" height="78" as="geometry" />
        </mxCell>
        <mxCell id="k7aemHpgfqK2G6UQP_n8-42" value="AnnounceEvent" style="outlineConnect=0;fontColor=#232F3E;gradientColor=none;fillColor=#D05C17;strokeColor=none;dashed=0;verticalLabelPosition=bottom;verticalAlign=top;align=center;html=1;fontSize=12;fontStyle=0;aspect=fixed;pointerEvents=1;shape=mxgraph.aws4.lambda_function;" parent="1" vertex="1">
          <mxGeometry x="520" y="80" width="78" height="78" as="geometry" />
        </mxCell>
        <mxCell id="kIKORUK3WMcLZ2eLD7nt-27" style="edgeStyle=orthogonalEdgeStyle;rounded=0;orthogonalLoop=1;jettySize=auto;html=1;startArrow=none;startFill=0;" parent="1" source="k7aemHpgfqK2G6UQP_n8-50" target="k7aemHpgfqK2G6UQP_n8-39" edge="1">
          <mxGeometry relative="1" as="geometry">
            <mxPoint x="1439" y="297" as="sourcePoint" />
            <mxPoint x="597.4100691775557" y="199" as="targetPoint" />
          </mxGeometry>
        </mxCell>
        <mxCell id="kIKORUK3WMcLZ2eLD7nt-29" style="edgeStyle=orthogonalEdgeStyle;rounded=0;orthogonalLoop=1;jettySize=auto;html=1;startArrow=none;startFill=0;" parent="1" source="k7aemHpgfqK2G6UQP_n8-5" target="k7aemHpgfqK2G6UQP_n8-50" edge="1">
          <mxGeometry relative="1" as="geometry">
            <mxPoint x="1037.9100691775557" y="519" as="sourcePoint" />
            <mxPoint x="1159" y="440" as="targetPoint" />
          </mxGeometry>
        </mxCell>
        <mxCell id="JZLs2FqF0W2ko9GQ3f_p-13" value="UploadsQueue" style="outlineConnect=0;fontColor=#232F3E;gradientColor=none;fillColor=#BC1356;strokeColor=none;dashed=0;verticalLabelPosition=bottom;verticalAlign=top;align=center;html=1;fontSize=12;fontStyle=0;aspect=fixed;pointerEvents=1;shape=mxgraph.aws4.queue;" parent="1" vertex="1">
          <mxGeometry x="680" y="260" width="78" height="47" as="geometry" />
        </mxCell>
        <mxCell id="JZLs2FqF0W2ko9GQ3f_p-14" style="edgeStyle=orthogonalEdgeStyle;rounded=0;orthogonalLoop=1;jettySize=auto;html=1;startArrow=none;startFill=0;" parent="1" source="k7aemHpgfqK2G6UQP_n8-47" target="JZLs2FqF0W2ko9GQ3f_p-13" edge="1">
          <mxGeometry relative="1" as="geometry">
            <mxPoint x="719" y="152.6248238760087" as="sourcePoint" />
            <mxPoint x="638" y="279" as="targetPoint" />
            <Array as="points">
              <mxPoint x="719" y="279" />
            </Array>
          </mxGeometry>
        </mxCell>
        <mxCell id="JZLs2FqF0W2ko9GQ3f_p-15" value="EventType = UploadSubmitted" style="edgeLabel;html=1;align=center;verticalAlign=middle;resizable=0;points=[];" parent="JZLs2FqF0W2ko9GQ3f_p-14" vertex="1" connectable="0">
          <mxGeometry x="-0.1808" relative="1" as="geometry">
            <mxPoint y="23.38" as="offset" />
          </mxGeometry>
        </mxCell>
        <mxCell id="JZLs2FqF0W2ko9GQ3f_p-20" style="edgeStyle=orthogonalEdgeStyle;rounded=0;orthogonalLoop=1;jettySize=auto;html=1;startArrow=none;startFill=0;" parent="1" source="JZLs2FqF0W2ko9GQ3f_p-16" target="JZLs2FqF0W2ko9GQ3f_p-17" edge="1">
          <mxGeometry relative="1" as="geometry" />
        </mxCell>
        <mxCell id="JZLs2FqF0W2ko9GQ3f_p-16" value="&lt;span&gt;POST /Entity&lt;/span&gt;" style="outlineConnect=0;fontColor=#232F3E;gradientColor=none;fillColor=#5A30B5;strokeColor=none;dashed=0;verticalLabelPosition=bottom;verticalAlign=top;align=center;html=1;fontSize=12;fontStyle=0;aspect=fixed;pointerEvents=1;shape=mxgraph.aws4.endpoint;" parent="1" vertex="1">
          <mxGeometry x="200" y="640" width="78" height="78" as="geometry" />
        </mxCell>
        <mxCell id="JZLs2FqF0W2ko9GQ3f_p-18" style="edgeStyle=orthogonalEdgeStyle;rounded=0;orthogonalLoop=1;jettySize=auto;html=1;startArrow=none;startFill=0;" parent="1" source="JZLs2FqF0W2ko9GQ3f_p-17" target="k7aemHpgfqK2G6UQP_n8-5" edge="1">
          <mxGeometry relative="1" as="geometry" />
        </mxCell>
        <mxCell id="JZLs2FqF0W2ko9GQ3f_p-17" value="CreateRecord" style="outlineConnect=0;fontColor=#232F3E;gradientColor=none;fillColor=#D05C17;strokeColor=none;dashed=0;verticalLabelPosition=bottom;verticalAlign=top;align=center;html=1;fontSize=12;fontStyle=0;aspect=fixed;pointerEvents=1;shape=mxgraph.aws4.lambda_function;" parent="1" vertex="1">
          <mxGeometry x="360" y="640" width="78" height="78" as="geometry" />
        </mxCell>
        <mxCell id="JZLs2FqF0W2ko9GQ3f_p-21" style="edgeStyle=orthogonalEdgeStyle;rounded=0;orthogonalLoop=1;jettySize=auto;html=1;startArrow=none;startFill=0;" parent="1" source="JZLs2FqF0W2ko9GQ3f_p-22" target="JZLs2FqF0W2ko9GQ3f_p-23" edge="1">
          <mxGeometry relative="1" as="geometry" />
        </mxCell>
        <mxCell id="JZLs2FqF0W2ko9GQ3f_p-22" value="&lt;span&gt;PUT /Entity/{id}&lt;/span&gt;" style="outlineConnect=0;fontColor=#232F3E;gradientColor=none;fillColor=#5A30B5;strokeColor=none;dashed=0;verticalLabelPosition=bottom;verticalAlign=top;align=center;html=1;fontSize=12;fontStyle=0;aspect=fixed;pointerEvents=1;shape=mxgraph.aws4.endpoint;" parent="1" vertex="1">
          <mxGeometry x="200" y="760" width="78" height="78" as="geometry" />
        </mxCell>
        <mxCell id="JZLs2FqF0W2ko9GQ3f_p-25" style="edgeStyle=orthogonalEdgeStyle;rounded=0;orthogonalLoop=1;jettySize=auto;html=1;startArrow=none;startFill=0;" parent="1" source="JZLs2FqF0W2ko9GQ3f_p-23" target="k7aemHpgfqK2G6UQP_n8-5" edge="1">
          <mxGeometry relative="1" as="geometry" />
        </mxCell>
        <mxCell id="JZLs2FqF0W2ko9GQ3f_p-23" value="UpdateRecord" style="outlineConnect=0;fontColor=#232F3E;gradientColor=none;fillColor=#D05C17;strokeColor=none;dashed=0;verticalLabelPosition=bottom;verticalAlign=top;align=center;html=1;fontSize=12;fontStyle=0;aspect=fixed;pointerEvents=1;shape=mxgraph.aws4.lambda_function;" parent="1" vertex="1">
          <mxGeometry x="360" y="760" width="78" height="78" as="geometry" />
        </mxCell>
      </root>
    </mxGraphModel>
  </diagram>
</mxfile>
